<svg xmlns="http://www.w3.org/2000/svg" width="30" height="30" viewBox="0 0 30 30">
  <path id="Path_16" data-name="Path 16" d="M-3043.02-864.869c0-.023.032-.214.073-.482.168.023.336.046.509.064a11.936,11.936,0,0,0,1.272.073,11.493,11.493,0,0,0,1.677-.127,3.583,3.583,0,0,1-.564,3h0a1.477,1.477,0,0,1-1.134.564C-3042.238-861.773-3043.289-862.986-3043.02-864.869Zm-7.895-4.759c.123-.091.232-.177.354-.264a11.627,11.627,0,0,0,2.482,2.45v0a3.485,3.485,0,0,1-2.664,1.7C-3052.519-865.733-3052.9-868.142-3050.915-869.629Zm16.84,2.545c-.023-.032-.136-.186-.282-.391a11.583,11.583,0,0,0,1.277-1.086,11.756,11.756,0,0,0,1.182-1.345,3.523,3.523,0,0,1,1.7,2.5h0a1.467,1.467,0,0,1-1.55,1.665A3.02,3.02,0,0,1-3034.074-867.083Zm-8.259.891a10.73,10.73,0,0,1-9.609-10.663c0-9.927,12.6-14.72,19.094-6.695h0a10.657,10.657,0,0,1,2.35,6.7,10.751,10.751,0,0,1-10.668,10.73A10.307,10.307,0,0,1-3042.333-866.193Zm8.885-10.663a7.783,7.783,0,0,0-7.772-7.772,7.783,7.783,0,0,0-7.772,7.772,7.791,7.791,0,0,0,6.987,7.736h0A7.792,7.792,0,0,0-3033.447-876.855Zm-9.018,6.75c.014-.914-.023-1.614,0-3.668-1.373,1.4-1.959,1.945-2.6,2.6a6.822,6.822,0,0,1-1.772-1.745c.664-.65,1.2-1.227,2.618-2.618-2.364,0-3.332,0-3.732,0a6.867,6.867,0,0,1-.027-2.482c.463,0,1.5-.009,3.759,0-1.486-1.464-2.063-2.073-2.682-2.682a7.038,7.038,0,0,1,1.746-1.773c.691.714,1.25,1.218,2.7,2.7-.023-2.227.018-2.854,0-3.827a6.846,6.846,0,0,1,2.486,0c-.018,1.059.027,1.736,0,3.827,1.3-1.327,1.9-1.873,2.691-2.7a7.048,7.048,0,0,1,1.759,1.782v0c-.486.477-1.3,1.291-2.691,2.672,2.8-.009,3.554,0,3.763,0a6.73,6.73,0,0,1-.032,2.482c-.419-.006-.776,0-1.252,0-.563.005-1.291.01-2.48,0l2.618,2.614a6.9,6.9,0,0,1-1.777,1.745c-.618-.632-1.086-1.059-2.6-2.6.018,2.218-.009,2.923,0,3.663a6.859,6.859,0,0,1-1.276.119A6.224,6.224,0,0,1-3042.465-870.106Zm-.345-6.75a1.593,1.593,0,0,0,1.591,1.591,1.592,1.592,0,0,0,1.591-1.591,1.593,1.593,0,0,0-1.591-1.591A1.593,1.593,0,0,0-3042.811-876.856Zm-13.409.082c0-1.355,1.736-2,3.091-1.8.018,0,.177.027.391.059a11.571,11.571,0,0,0-.114,1.659,11.412,11.412,0,0,0,.141,1.818h0a6.728,6.728,0,0,1-.918.1C-3054.883-874.942-3056.219-875.583-3056.219-876.774Zm26.909,1.8c-.1-.014-.246-.036-.418-.059a11.467,11.467,0,0,0,.141-1.818,11.187,11.187,0,0,0-.118-1.659c.127-.018.259-.036.391-.059,1.377-.2,3.1.445,3.1,1.8h0c0,1.194-1.339,1.83-2.594,1.83A3.524,3.524,0,0,1-3029.311-874.978Zm-5.146-3.036Zm2.313-6.109a12.241,12.241,0,0,0-2.132-2.073c.1-.132.168-.227.2-.273.832-1.109,2.5-1.859,3.464-.909a1.515,1.515,0,0,1,.427,1.223h0a3.5,3.5,0,0,1-1.632,2.455C-3031.925-883.841-3032.029-883.982-3032.143-884.123Zm-18.772.2c-1.1-.818-1.882-2.5-.914-3.455a1.5,1.5,0,0,1,1.091-.432,3.436,3.436,0,0,1,2.609,1.65,11.693,11.693,0,0,0-2.5,2.45C-3050.724-883.783-3050.82-883.856-3050.915-883.924Zm7.9-4.759c-.2-1.354.441-3.091,1.8-3.091s1.991,1.727,1.791,3.091c0,.036-.023.15-.046.3a10.8,10.8,0,0,0-1.632-.123,10.851,10.851,0,0,0-1.868.164C-3042.992-888.487-3043.01-888.61-3043.02-888.682Z" transform="translate(3056.219 891.773)" fill="#474747"/>
</svg>
