<svg xmlns="http://www.w3.org/2000/svg" width="41" height="30" viewBox="0 0 41 30">
  <g id="Group_30" data-name="Group 30" transform="translate(-497 -261)">
    <rect id="Rectangle_9" data-name="Rectangle 9" width="41" height="30" transform="translate(497 261)" fill="none"/>
    <path id="Path_25" data-name="Path 25" d="M-2094.614-1.13l-2.528-1.958-2.528,1.958a.8.8,0,0,1-.385.109.5.5,0,0,1-.275-.054.655.655,0,0,1-.385-.545V-8.251a6.959,6.959,0,0,1-3.572-6.089,7.091,7.091,0,0,1,7.143-7.067A7.091,7.091,0,0,1-2090-14.341a6.96,6.96,0,0,1-3.571,6.089v6.632a.654.654,0,0,1-.385.544.664.664,0,0,1-.3.076A.6.6,0,0,1-2094.614-1.13Zm-7.515.13h-21.923A6.817,6.817,0,0,1-2131-7.831a7.073,7.073,0,0,1,1.579-4.452,6.964,6.964,0,0,1,3.944-2.416,4.588,4.588,0,0,1-.144-1.139,4.906,4.906,0,0,1,5.006-4.788,5.12,5.12,0,0,1,2.968.933,9.324,9.324,0,0,1,3.39-3.83A9.39,9.39,0,0,1-2109.186-25a9.356,9.356,0,0,1,7.306,3.479,8.678,8.678,0,0,0-1.39,1.118,8.468,8.468,0,0,0-2.531,6.062,8.481,8.481,0,0,0,3.571,6.908v5.813a1.956,1.956,0,0,0,.1.618h0Z" transform="translate(2628 289)" fill="#474747"/>
  </g>
</svg>
