<svg xmlns="http://www.w3.org/2000/svg" width="39" height="30" viewBox="0 0 39 30">
  <path id="_01-programm" data-name="01-programm" d="M32.12,20.051H21.8a2.876,2.876,0,0,0-2.868,2.885v9.23A2.876,2.876,0,0,0,21.8,35.05H32.12v3.462a1.15,1.15,0,0,1-1.147,1.154H17.208v3.462H21.8a.574.574,0,0,1,.572.582v1.143a.575.575,0,0,1-.575.582H10.327a.576.576,0,0,1-.575-.582V43.71a.577.577,0,0,1,.572-.582h4.59V39.666H1.149A1.15,1.15,0,0,1,0,38.512V16.589a1.151,1.151,0,0,1,1.147-1.154H30.973a1.15,1.15,0,0,1,1.147,1.154ZM37.855,33.32H21.8a1.15,1.15,0,0,1-1.147-1.154v-9.23A1.15,1.15,0,0,1,21.8,21.782H37.855A1.151,1.151,0,0,1,39,22.936v9.23A1.151,1.151,0,0,1,37.855,33.32ZM26.924,25.835a.577.577,0,0,0-.1-.812l-.887-.714a.571.571,0,0,0-.81.087L23.195,26.83a1.159,1.159,0,0,0,0,1.442l1.936,2.434a.571.571,0,0,0,.81.087l.887-.714a.58.58,0,0,0,.1-.812l-1.364-1.715Zm5.8,3.431a.577.577,0,0,0,.1.812l.887.714a.571.571,0,0,0,.81-.087l1.936-2.434a1.159,1.159,0,0,0,0-1.442L34.521,24.4a.571.571,0,0,0-.81-.087l-.887.714a.58.58,0,0,0-.1.812l1.364,1.715Zm-2.918,1.281a.572.572,0,0,0,.68-.45l.923-4.642a.575.575,0,0,0-.456-.678l-1.114-.224a.572.572,0,0,0-.68.449l-.923,4.642a.575.575,0,0,0,.456.678Z" transform="translate(-0.002 -15.435)" fill="#474747" fill-rule="evenodd"/>
</svg>
