<svg xmlns="http://www.w3.org/2000/svg" width="24" height="30" viewBox="0 0 24 30">
  <path id="Path_5" data-name="Path 5" d="M1.586,30A1.581,1.581,0,0,1,0,28.435V6.564A1.58,1.58,0,0,1,1.586,5H13.219V8.957a1.792,1.792,0,0,0,1.8,1.778h4.014v17.7A1.581,1.581,0,0,1,17.448,30Zm18.276-5V9.4L14.684,4.167H4.966v-2.6A1.577,1.577,0,0,1,6.552,0H18.184V3.957a1.793,1.793,0,0,0,1.8,1.778H24v17.7A1.576,1.576,0,0,1,22.414,25ZM15.021,9.692a.739.739,0,0,1-.746-.735V5.334a1.647,1.647,0,0,1,.153.125l4.14,4.082a1.754,1.754,0,0,1,.127.151Zm8.639-5H19.986a.741.741,0,0,1-.745-.736V.334l.043.034a.986.986,0,0,1,.109.092l4.141,4.082a1.077,1.077,0,0,1,.093.11l.032.04v0Z" fill="#474747"/>
</svg>
