<svg xmlns="http://www.w3.org/2000/svg" width="36" height="30" viewBox="0 0 36 30">
  <g id="Group_21" data-name="Group 21" transform="translate(-497 -261)">
    <path id="Path_15" data-name="Path 15" d="M-2101.579-210h-22.546a6.78,6.78,0,0,1-6.875-6.831,7.115,7.115,0,0,1,1.562-4.453,6.877,6.877,0,0,1,3.9-2.415,4.618,4.618,0,0,1-.142-1.139,4.878,4.878,0,0,1,4.953-4.788,5.026,5.026,0,0,1,2.937.933,9.273,9.273,0,0,1,3.354-3.83,9.219,9.219,0,0,1,5.019-1.478,9.26,9.26,0,0,1,9.254,9.246c0,.125,0,.258-.011.418a6.538,6.538,0,0,1,3.7,2.539A7.905,7.905,0,0,1-2095-217.16C-2095-213.145-2097.89-210-2101.579-210Zm-19.012-12.807a4.041,4.041,0,0,0-1.566.286,3.13,3.13,0,0,0-1.148.81,3.568,3.568,0,0,0-.7,1.236,4.929,4.929,0,0,0-.24,1.569,5.124,5.124,0,0,0,.369,2.013,2.907,2.907,0,0,0,1.15,1.354,3.768,3.768,0,0,0,2.01.488,6.115,6.115,0,0,0,1.112-.1,4.639,4.639,0,0,0,1.025-.32v-1.723a9.942,9.942,0,0,1-.942.336,3.408,3.408,0,0,1-.973.14,1.628,1.628,0,0,1-.926-.248,1.472,1.472,0,0,1-.55-.733,3.466,3.466,0,0,1-.18-1.2,3.872,3.872,0,0,1,.105-.942,2.179,2.179,0,0,1,.307-.7,1.393,1.393,0,0,1,.485-.441,1.351,1.351,0,0,1,.645-.153,2.981,2.981,0,0,1,.9.134,6.78,6.78,0,0,1,.836.33l.624-1.6a5.187,5.187,0,0,0-1.185-.4A5.651,5.651,0,0,0-2120.592-222.807Zm17,2.229h.046c-.008.118-.018.279-.033.575-.013.276-.023.529-.031.774-.009.266-.013.524-.013.767v3.307h1.874V-222.7h-2.72l-1.542,5.357h-.042l-1.574-5.357h-2.714v7.545h1.806v-3.277c0-.251-.007-.522-.021-.805-.015-.308-.032-.592-.044-.779-.015-.236-.03-.428-.043-.573h.046l1.542,5.434h1.94l1.523-5.423Zm-11.674,2.677h.516l1.6,2.746h2.312l-2.2-3.288a2.918,2.918,0,0,0,.684-.518,2.142,2.142,0,0,0,.441-.673,2.186,2.186,0,0,0,.155-.836,2.126,2.126,0,0,0-.343-1.233,2.079,2.079,0,0,0-1.024-.746,5.04,5.04,0,0,0-1.708-.25h-2.472v7.545h2.038V-217.9Zm.382-1.532h-.382v-1.724h.4a1.248,1.248,0,0,1,.8.207.706.706,0,0,1,.248.572.837.837,0,0,1-.3.738A1.333,1.333,0,0,1-2114.884-219.432Z" transform="translate(2628 498)" fill="#474747"/>
    <rect id="Rectangle_5" data-name="Rectangle 5" width="36" height="30" transform="translate(497 261)" fill="none"/>
  </g>
</svg>
