<svg xmlns="http://www.w3.org/2000/svg" width="36" height="30" viewBox="0 0 36 30">
  <g id="Group_23" data-name="Group 23" transform="translate(-497 -261)">
    <path id="Path_2" data-name="Path 2" d="M-1025.8-594.89a19.567,19.567,0,0,0,1.971-3.81,8.049,8.049,0,0,1-3.638-6.349c0-5,5.646-9.043,12.657-9.043h0c7.011,0,12.695,4.041,12.657,9.082,0,5-5.646,9.043-12.657,9.043a16.652,16.652,0,0,1-3.714-.385,24.88,24.88,0,0,1-6.328,2.886.906.906,0,0,1-.213.026A.921.921,0,0,1-1025.8-594.89Zm32.248-6.849a20.028,20.028,0,0,1-5.154-2.347c-.531.077-1.061.193-1.592.231.038-.385.076-.808.076-1.193a9.814,9.814,0,0,0-4.51-7.966,15.6,15.6,0,0,0-5.305-2.424,12.007,12.007,0,0,1,8.3-3c5.684,0,10.269,3.271,10.269,7.311a6.412,6.412,0,0,1-2.956,5.118,16.875,16.875,0,0,0,1.629,3.117.74.74,0,0,1-.556,1.185A.7.7,0,0,1-993.553-601.739Z" transform="translate(1524.469 882.44)" fill="#474747"/>
    <rect id="Rectangle_7" data-name="Rectangle 7" width="36" height="30" transform="translate(497 261)" fill="none"/>
  </g>
</svg>
