<svg xmlns="http://www.w3.org/2000/svg" width="36" height="30" viewBox="0 0 36 30">
  <g id="Group_21" data-name="Group 21" transform="translate(-497 -261)">
    <path id="Path_4" data-name="Path 4" d="M100.828,102.993c.006-.138.011-.278.011-.418a9.255,9.255,0,0,0-17.626-3.937,5.044,5.044,0,0,0-2.937-.933,4.873,4.873,0,0,0-4.953,4.788,4.644,4.644,0,0,0,.142,1.139A6.986,6.986,0,0,0,70,110.5a6.788,6.788,0,0,0,6.875,6.83H99.421c3.633,0,6.579-3.1,6.579-7.16a7.21,7.21,0,0,0-5.172-7.177Z" transform="translate(427 170.67)" fill="#474747"/>
    <rect id="Rectangle_5" data-name="Rectangle 5" width="36" height="30" transform="translate(497 261)" fill="none"/>
  </g>
</svg>
