<svg xmlns="http://www.w3.org/2000/svg" width="35" height="30" viewBox="0 0 35 30">
  <path id="_04-upravlenie-biznesom" data-name="04-upravlenie-biznesom" d="M131.15,65.762h-8.281V63.037a1.829,1.829,0,0,0-1.84-1.817H109.952a1.829,1.829,0,0,0-1.84,1.817v2.725H99.83a1.829,1.829,0,0,0-1.84,1.817v12.74a1.829,1.829,0,0,0,1.84,1.817h31.319a1.829,1.829,0,0,0,1.84-1.817V67.579a1.829,1.829,0,0,0-1.84-1.817Zm-10.121,0H109.952V63.037h11.077Zm-2.76,18.19V85.3a1.389,1.389,0,0,1-1.4,1.38h-2.76a1.389,1.389,0,0,1-1.4-1.38V83.953H99.831a3.68,3.68,0,0,1-1.84-.5V89.4a1.829,1.829,0,0,0,1.84,1.817H131.15a1.829,1.829,0,0,0,1.84-1.817V83.448a3.677,3.677,0,0,1-1.84.5Z" transform="translate(-97.99 -61.22)" fill="#474747" fill-rule="evenodd"/>
</svg>
