<svg xmlns="http://www.w3.org/2000/svg" width="30" height="30" viewBox="0 0 30 30">
  <path id="Path_3" data-name="Path 3" d="M111.3,38.886a2,2,0,0,0-1.524-.568l0,0a3.654,3.654,0,0,0-3.44,2.605c-8.155-2.651-8.9-8.855-8.9-8.855l1.58-2.2-1.58,2.2a4.057,4.057,0,0,0,2.48-2.695,2.081,2.081,0,0,0,.153-.971v0a1.962,1.962,0,0,0-.571-1.232l-3.981-3.953a2.085,2.085,0,0,0-2.927.055l-1.122,1.12.03.03a6.437,6.437,0,0,0-.925,1.619,6.667,6.667,0,0,0-.411,1.642c-.526,4.327,1.466,8.281,6.871,13.647,7.471,7.416,13.493,6.856,13.752,6.829a6.764,6.764,0,0,0,1.659-.414,6.478,6.478,0,0,0,1.625-.914l.024.022,1.137-1.105a2.052,2.052,0,0,0,.053-2.908ZM100.07,28.423v0Zm-.079.652v0A0,0,0,0,1,99.991,29.075Zm.018-.092.061-.535a.075.075,0,0,1,0-.01A.079.079,0,0,0,100.07,28.448Zm18.523,8.319a1.484,1.484,0,0,1-1.489-1.478,14.224,14.224,0,0,0-14.26-14.156,1.478,1.478,0,1,1,0-2.957,17.187,17.187,0,0,1,12.189,5.012,16.939,16.939,0,0,1,5.049,12.1,1.483,1.483,0,0,1-1.489,1.479Zm-5.843-.686A1.484,1.484,0,0,1,111.26,34.6a7.705,7.705,0,0,0-7.725-7.668,1.478,1.478,0,1,1,0-2.957,10.677,10.677,0,0,1,10.7,10.625A1.484,1.484,0,0,1,112.75,36.082Z" transform="translate(-90.082 -18.177)" fill="#474747"/>
</svg>
