<svg xmlns="http://www.w3.org/2000/svg" width="23" height="30" viewBox="0 0 23 30">
  <path id="_03-upravlenie-remontami" data-name="03-upravlenie-remontami" d="M-1145.4-282.191a1.9,1.9,0,0,1-1.917-1.877v-26.246a1.9,1.9,0,0,1,1.917-1.877h14.055v4.749a2.159,2.159,0,0,0,2.179,2.133h4.849v21.241a1.9,1.9,0,0,1-1.917,1.877Zm1.81-5.523h1.278v-1.251h3.195v-1.251h-3.195v-1.251h-1.278Zm6.6-1.251h8.944v-1.251h-8.944Zm4.259-4.38h3.195v1.251h1.278v-3.754h-1.278v1.251h-3.195Zm-10.861,0h8.944V-294.6h-8.944Zm0-3.128h1.278v-1.251h3.195v-1.251h-3.195v-1.251h-1.278Zm6.6-1.251h8.944v-1.251h-8.944Zm7.821-8.835a.891.891,0,0,1-.9-.882h0v-4.348a2.163,2.163,0,0,1,.185.15l5,4.9a2.186,2.186,0,0,1,.153.181Z" transform="translate(1147.313 312.191)" fill="#474747"/>
</svg>
