<svg xmlns="http://www.w3.org/2000/svg" width="36" height="30" viewBox="0 0 36 30">
  <g id="Group_22" data-name="Group 22" transform="translate(-497 -261)">
    <path id="Path_7" data-name="Path 7" d="M-754.468-843v-1.9a4.316,4.316,0,0,1,1.664-3.389,11.27,11.27,0,0,1,4.538-2.175,21.229,21.229,0,0,1,5.24-.623h0a20.117,20.117,0,0,1,6.576,1.032h0a9.381,9.381,0,0,1,3.595,2.134,4.161,4.161,0,0,1,1.284,3.02v1.9Zm24.7,0v-1.9a6.153,6.153,0,0,0-1.8-4.315,9.214,9.214,0,0,0-2.042-1.56,22.731,22.731,0,0,1,4-.3h0a21.008,21.008,0,0,1,5.131.67,11.019,11.019,0,0,1,4.409,2.171,4.284,4.284,0,0,1,1.611,3.335v1.9Zm-5.012-18.044A4.931,4.931,0,0,1-729.907-866a4.931,4.931,0,0,1,4.876,4.956,4.931,4.931,0,0,1-4.876,4.956A4.931,4.931,0,0,1-734.783-861.044Zm-13.123,0A4.932,4.932,0,0,1-743.029-866a4.938,4.938,0,0,1,4.9,4.956,4.938,4.938,0,0,1-4.9,4.956A4.932,4.932,0,0,1-747.905-861.044Z" transform="translate(1251.468 1130)" fill="#474747"/>
    <rect id="Rectangle_6" data-name="Rectangle 6" width="36" height="30" transform="translate(497 261)" fill="none"/>
  </g>
</svg>
