<svg xmlns="http://www.w3.org/2000/svg" width="30" height="30" viewBox="0 0 30 30">
  <path id="_02-support" data-name="02-support" d="M103.093,23.254l2.25.4h0a11.626,11.626,0,0,0,1.163,2.8l-1.31,1.869a1.727,1.727,0,0,0,.19,2.216l1.348,1.347h0a1.729,1.729,0,0,0,2.218.19l1.87-1.309h0a11.656,11.656,0,0,0,2.8,1.162l.4,2.249a1.727,1.727,0,0,0,1.7,1.428h1.93a1.728,1.728,0,0,0,1.7-1.428l.4-2.249h0a11.659,11.659,0,0,0,2.794-1.162l1.87,1.309h0a1.729,1.729,0,0,0,2.218-.19l1.348-1.347a1.727,1.727,0,0,0,.19-2.216l-1.332-1.869a11.648,11.648,0,0,0,1.142-2.8l2.25-.4h0a1.728,1.728,0,0,0,1.429-1.7V19.647a1.728,1.728,0,0,0-1.429-1.7l-2.25-.4a11.642,11.642,0,0,0-1.163-2.8l1.31-1.869a1.727,1.727,0,0,0-.147-2.216l-1.37-1.347a1.73,1.73,0,0,0-2.218-.2l-1.848,1.309a11.641,11.641,0,0,0-2.8-1.162l-.4-2.249a1.728,1.728,0,0,0-1.7-1.423h-1.935a1.727,1.727,0,0,0-1.7,1.428l-.4,2.249a11.654,11.654,0,0,0-2.8,1.157l-1.864-1.309a1.73,1.73,0,0,0-2.218.2l-1.348,1.347h0a1.727,1.727,0,0,0-.19,2.216l1.31,1.869a11.644,11.644,0,0,0-1.169,2.8l-2.25.4h0a1.728,1.728,0,0,0-1.429,1.7v1.907a1.728,1.728,0,0,0,1.435,1.7Zm13.589-9.071h0a6.3,6.3,0,1,1-.011,0ZM113.253,20.6a3.418,3.418,0,1,1,1,2.416A3.416,3.416,0,0,1,113.253,20.6Z" transform="translate(-101.658 -5.601)" fill="#474747"/>
</svg>
