<svg xmlns="http://www.w3.org/2000/svg" width="25" height="30.001" viewBox="0 0 25 30.001">
  <path id="Path_6" data-name="Path 6" d="M22,30V18h3V30Zm-4,0V22h3v8Zm-4,0V25h3v5Zm-1,0H1.917A1.9,1.9,0,0,1,0,28.123V1.877A1.9,1.9,0,0,1,1.917,0H15.972V4.748A2.159,2.159,0,0,0,18.15,6.882H23V17H21v4H17v3H13v6h0Zm-9.67-8.774h7.944V19.974H3.329Zm0-4.379H16.274V15.594H3.329Zm0-4.38H19.274V11.215H3.329ZM22.588,5.631H18.15a.893.893,0,0,1-.9-.883V.4L17.3.442a1.278,1.278,0,0,1,.131.109l5,4.9a1.3,1.3,0,0,1,.113.131c.014.017.026.033.04.049v0Z" fill="#474747"/>
</svg>
