<svg xmlns="http://www.w3.org/2000/svg" width="33" height="30" viewBox="0 0 33 30">
  <path id="Path_17" data-name="Path 17" d="M-3289.725-649.789a1.012,1.012,0,0,1-1.007-1.016,4.646,4.646,0,0,1,4.305-4.625l-3.854-12.544a7.606,7.606,0,0,0,1.25.14,5.145,5.145,0,0,0,3.542-1.437l4.2,13.735h14.341a4.682,4.682,0,0,1,4.653,4.73,1.012,1.012,0,0,1-1.007,1.016Zm20.417-17.554-2.743-2.242a3.478,3.478,0,0,1-3.4-3.469,3.439,3.439,0,0,1,3.438-3.469c.1,0,.173.035.278.035l2.43-1.962a5.994,5.994,0,0,1,6.007-.911l2.708,1.051a1.805,1.805,0,0,1,1.007,2.313,1.778,1.778,0,0,1-2.292,1.016l-2.708-1.051a2.487,2.487,0,0,0-2.5.385l-1.736,1.4a3.663,3.663,0,0,1,.243,1.226,3.339,3.339,0,0,1-.312,1.437l1.805,1.472a2.572,2.572,0,0,0,2.5.385l2.708-1.051h0a1.718,1.718,0,0,1,2.257,1.052,1.792,1.792,0,0,1-1.007,2.313l-2.708,1.051a6.482,6.482,0,0,1-2.153.385A6.22,6.22,0,0,1-3269.308-667.343Zm-23.16-5.677a3.453,3.453,0,0,1,3.438-3.469,3.453,3.453,0,0,1,3.438,3.469,3.453,3.453,0,0,1-3.437,3.469A3.453,3.453,0,0,1-3292.468-673.02Zm7.882,2.558a4.954,4.954,0,0,0,.694-2.558,5.24,5.24,0,0,0-.625-2.453h7.987a5.352,5.352,0,0,0-.625,2.453,5.206,5.206,0,0,0,.694,2.558Z" transform="translate(3292.468 679.789)" fill="#474747"/>
</svg>
