<svg xmlns="http://www.w3.org/2000/svg" width="30" height="30" viewBox="0 0 30 30">
  <g id="Group_32" data-name="Group 32" transform="translate(-497 -261)">
    <path id="Path_11" data-name="Path 11" d="M-2105,5h-12.132V-25H-2105V5Zm-8.666-6.177a2.627,2.627,0,0,0,2.6,2.647,2.626,2.626,0,0,0,2.6-2.647,2.627,2.627,0,0,0-2.6-2.648A2.628,2.628,0,0,0-2113.667-1.177Zm0-6.177h5.2V-21.471h-5.2ZM-2118.868,5H-2131V-25h12.134V5Zm-8.666-6.177a2.627,2.627,0,0,0,2.6,2.647,2.627,2.627,0,0,0,2.6-2.647,2.627,2.627,0,0,0-2.6-2.648A2.628,2.628,0,0,0-2127.534-1.177Zm0-6.177h5.2V-21.471h-5.2Z" transform="translate(2630 286)" fill="#474747"/>
    <rect id="Rectangle_11" data-name="Rectangle 11" width="30" height="30" transform="translate(497 261)" fill="none"/>
  </g>
</svg>
