<svg xmlns="http://www.w3.org/2000/svg" width="30" height="30" viewBox="0 0 30 30">
  <path id="Path_12" data-name="Path 12" d="M176.195,119.853a.321.321,0,0,1,.107.243.337.337,0,0,1-.107.243.158.158,0,0,1-.229,0,.307.307,0,0,1-.107-.243.3.3,0,0,1,.107-.243.15.15,0,0,1,.114-.05A.163.163,0,0,1,176.195,119.853Zm-9.8-9.243h14.213V96.4a.3.3,0,0,1,0-.071H167.037a.714.714,0,0,0-.714.714V110.61Zm4.214-7.143h2.857V100.61a.714.714,0,0,1,1.429,0v2.857h2.857a.714.714,0,0,1,0,1.429h-2.857v2.857a.714.714,0,0,1-1.429,0V104.9h-2.857a.714.714,0,0,1,0-1.429Zm1.479,13.493.314-.364h0a.328.328,0,0,1,.1.243.3.3,0,0,1-.107.243.157.157,0,0,1-.229,0,.27.27,0,0,1-.078-.114Zm9.95-20.563V110.61h14.285V97.039a.714.714,0,0,0-.714-.714H182.038a.3.3,0,0,1,0,.071Zm3.371,5.764a.714.714,0,0,1,1.007-1.007l2.05,2.022,2.021-2.021h0a.714.714,0,0,1,1.007,1.007l-2.022,2.021,2.021,2.021h0a.712.712,0,0,1-1.007,1.007l-2.021-2.022-2.021,2.021h0a.712.712,0,0,1-1.007-1.007l2.022-2.021Zm10.842,9.878H182.038v14.213a.3.3,0,0,1,0,.071h13.571a.714.714,0,0,0,.714-.714V112.038Zm-3.571,7.143h-8.457a.714.714,0,1,1,0-1.429h8.485a.714.714,0,0,1,0,1.429Zm-20.592-2.221a.307.307,0,0,1,.078-.364.2.2,0,0,1,.114-.043.179.179,0,0,1,.114.043Zm8.521,9.293V112.039H166.324V125.61a.714.714,0,0,0,.714.714h13.571a.3.3,0,0,1,0-.071ZM171.467,116a1.271,1.271,0,0,1,1.628,0,1.12,1.12,0,0,1-.021,1.685,1.236,1.236,0,0,1-.814.3,1.265,1.265,0,0,1-.814-.3,1.123,1.123,0,0,1-.364-.607.858.858,0,0,1,0-.236,1.123,1.123,0,0,1,.386-.843Zm5.428,4.935a1.266,1.266,0,0,1-.814.3,1.236,1.236,0,0,1-.814-.3,1.093,1.093,0,0,1,0-1.678,1.257,1.257,0,0,1,1.628,0,1.093,1.093,0,0,1,0,1.678Zm1.186-4.871-6.871,5.893h0a.712.712,0,1,1-.929-1.078l6.871-5.893h0a.714.714,0,1,1,.929,1.078Z" transform="translate(-166.323 -96.325)" fill="#474747"/>
</svg>
