<svg xmlns="http://www.w3.org/2000/svg" width="24" height="30" viewBox="0 0 24 30">
  <path id="Path_14" data-name="Path 14" d="M-3056.307-872.75a.558.558,0,0,1-.522-.517v-3.621a.52.52,0,0,1,.522-.517h22.956a.558.558,0,0,1,.522.517v3.621a.52.52,0,0,1-.522.517Zm1.043-5.69v-7.241a8.743,8.743,0,0,1,1.734-5.224,8.869,8.869,0,0,1,4.526-3.181v-1.422h7.826v1.293a8.878,8.878,0,0,1,4.88,3.1,8.745,8.745,0,0,1,1.9,5.43v7.241Zm6.376-10.747a5.666,5.666,0,0,0-1.681,4.023,5.666,5.666,0,0,0,1.681,4.023,5.764,5.764,0,0,0,4.058,1.666,5.764,5.764,0,0,0,4.058-1.666,5.665,5.665,0,0,0,1.681-4.023,5.665,5.665,0,0,0-1.681-4.023,5.764,5.764,0,0,0-4.058-1.666A5.764,5.764,0,0,0-3048.887-889.187Zm.738,7.315a4.635,4.635,0,0,1-1.375-3.292,4.633,4.633,0,0,1,1.375-3.292,4.715,4.715,0,0,1,3.32-1.364,4.715,4.715,0,0,1,3.32,1.364,4.635,4.635,0,0,1,1.375,3.292,4.635,4.635,0,0,1-1.375,3.292,4.715,4.715,0,0,1-3.32,1.363A4.715,4.715,0,0,1-3048.149-881.872Zm2.8-4.75a1.557,1.557,0,0,0-.964,1.009,1.54,1.54,0,0,0,.237,1.37,1.569,1.569,0,0,0,1.248.632,1.569,1.569,0,0,0,1.249-.632,1.54,1.54,0,0,0,.237-1.37,1.557,1.557,0,0,0-.964-1.009v-2.162h-1.043Zm-7.826-9.921a2.622,2.622,0,0,1-1.845-.757,2.576,2.576,0,0,1-.764-1.829v-3.1a.52.52,0,0,1,.522-.517h20.869a.524.524,0,0,1,.369.152.515.515,0,0,1,.153.366v3.1a2.576,2.576,0,0,1-.764,1.829,2.622,2.622,0,0,1-1.845.757Z" transform="translate(3056.829 902.75)" fill="#474747"/>
</svg>
