<svg xmlns="http://www.w3.org/2000/svg" width="36" height="30" viewBox="0 0 36 30">
  <g id="Group_24" data-name="Group 24" transform="translate(-497 -261)">
    <path id="Path_9" data-name="Path 9" d="M-980.819-868.616a1.934,1.934,0,0,0,.869-.322h0l1.34-.905a1.965,1.965,0,0,0,.649-.72,2.013,2.013,0,0,0,.232-.95v-4.368l.051.006a19.131,19.131,0,0,1,2.848.57,22.443,22.443,0,0,1,8.569,4.585l0,0a1.938,1.938,0,0,0,1,.441,1.925,1.925,0,0,0,1.075-.17,1.966,1.966,0,0,0,.82-.729,2.017,2.017,0,0,0,.311-1.062v-19.39a2.018,2.018,0,0,0-.311-1.062,1.968,1.968,0,0,0-.82-.728,1.925,1.925,0,0,0-1.075-.17h0a1.937,1.937,0,0,0-1,.441l0,0a22.446,22.446,0,0,1-8.569,4.585,19.153,19.153,0,0,1-2.848.57c-.341.04-.607.06-.783.07-.088,0-.154.007-.2.008H-983.6a5.818,5.818,0,0,0-4.151,1.751,6.032,6.032,0,0,0-1.719,4.226,6.033,6.033,0,0,0,1.719,4.226,5.831,5.831,0,0,0,3.373,1.7l1.443,5.9v0a2.006,2.006,0,0,0,.433.834,1.959,1.959,0,0,0,.761.538,1.931,1.931,0,0,0,.7.133A1.912,1.912,0,0,0-980.819-868.616Zm23.929-4.9h0a12.024,12.024,0,0,0,3.422-8.419,12.024,12.024,0,0,0-3.422-8.419.577.577,0,0,0-.827,0,.6.6,0,0,0,0,.842,10.823,10.823,0,0,1,3.08,7.578,10.823,10.823,0,0,1-3.08,7.578.6.6,0,0,0,0,.842.578.578,0,0,0,.413.174A.578.578,0,0,0-956.89-873.512Zm-3.721-3.789h0a6.551,6.551,0,0,0,1.394-2.125,6.647,6.647,0,0,0,.49-2.506,6.65,6.65,0,0,0-.49-2.506,6.555,6.555,0,0,0-1.394-2.125.578.578,0,0,0-.827,0,.6.6,0,0,0,0,.842,5.366,5.366,0,0,1,1.141,1.738,5.444,5.444,0,0,1,.4,2.05,5.442,5.442,0,0,1-.4,2.05,5.365,5.365,0,0,1-1.141,1.738.6.6,0,0,0,0,.842.578.578,0,0,0,.414.174A.577.577,0,0,0-960.612-877.3Z" transform="translate(1486.468 1156.604)" fill="#474747"/>
    <rect id="Rectangle_8" data-name="Rectangle 8" width="36" height="30" transform="translate(497 261)" fill="none"/>
  </g>
</svg>
