<svg xmlns="http://www.w3.org/2000/svg" width="24" height="24" viewBox="0 0 24 24">
  <path id="envelope-open" d="M23.138,7.641c-1.166-.92-2.133-1.658-7.7-5.7C14.658,1.369,13.111,0,12.019,0h-.037C10.889,0,9.342,1.369,8.559,1.94,2.991,5.983,2.025,6.679.858,7.64A2.249,2.249,0,0,0,0,9.413V21.75A2.25,2.25,0,0,0,2.25,24h19.5A2.241,2.241,0,0,0,24,21.792V9.413A2.23,2.23,0,0,0,23.138,7.641Zm-8.925,9.586a3.551,3.551,0,0,1-4.423,0L3,11.948V9.773C3.992,9,5.179,8.1,10.331,4.359c.149-.109.323-.243.515-.392.259-.2.77-.594,1.154-.835.385.241.9.637,1.154.836.192.148.366.283.523.4C18.792,8.086,20,8.986,21,9.773v2.171Z" fill="#05a259"/>
</svg>
